<?xml version="1.0" encoding="utf-8"?><!DOCTYPE svg PUBLIC "-//W3C//DTD SVG 1.1//EN" "http://www.w3.org/Graphics/SVG/1.1/DTD/svg11.dtd"><svg version="1.1" xmlns="http://www.w3.org/2000/svg" xmlns:xlink="http://www.w3.org/1999/xlink" width="16" height="16" viewBox="0 0 16 16" data-tags="facebook,social"><g fill="#444" transform="scale(0.015625 0.015625)"><path d="M960 1024h-896c-35.376 0-64-28.624-64-64v-896c0-35.376 28.624-64 64-64h896c35.376 0 64 28.624 64 64v896c0 35.376-28.624 64-64 64zM896 128h-768v768h768v-768zM512 384c0-70.562 58.376-128 118.876-128h73.124v128h-64v64h64v128h-64v192h-128v-192h-64v-128h64v-64z" /></g></svg>