<?xml version="1.0" encoding="utf-8"?><!DOCTYPE svg PUBLIC "-//W3C//DTD SVG 1.1//EN" "http://www.w3.org/Graphics/SVG/1.1/DTD/svg11.dtd"><svg version="1.1" xmlns="http://www.w3.org/2000/svg" xmlns:xlink="http://www.w3.org/1999/xlink" width="24" height="24" viewBox="0 0 24 24" data-tags="facebook"><g fill="#444" transform="scale(0.0234375 0.0234375)"><path d="M725.333 128v85.333h-85.333c-23.552 0-44.928 9.6-60.331 25.003s-25.003 36.779-25.003 60.331v128c0 23.552 19.115 42.667 42.667 42.667h116.011l-21.333 85.333h-94.677c-23.552 0-42.667 19.115-42.667 42.667v298.667h-85.333v-298.667c0-23.552-19.115-42.667-42.667-42.667h-85.333v-85.333h85.333c23.552 0 42.667-19.115 42.667-42.667v-128c0-47.147 19.072-89.728 50.005-120.661s73.515-50.005 120.661-50.005zM768 42.667h-128c-70.699 0-134.741 28.715-181.035 74.965s-74.965 110.336-74.965 181.035v85.333h-85.333c-23.552 0-42.667 19.115-42.667 42.667v170.667c0 23.552 19.115 42.667 42.667 42.667h85.333v298.667c0 23.552 19.115 42.667 42.667 42.667h170.667c23.552 0 42.667-19.115 42.667-42.667v-298.667h85.333c19.883 0 36.608-13.611 41.387-32.299l42.667-170.667c5.717-22.869-8.192-46.037-31.061-51.755-3.541-0.896-7.125-1.323-10.325-1.28h-128v-85.333h128c23.552 0 42.667-19.115 42.667-42.667v-170.667c0-23.552-19.115-42.667-42.667-42.667z" /></g></svg>